<mxfile host="app.diagrams.net" modified="2023-05-26T03:43:11.356Z" agent="Mozilla/5.0 (Windows NT 10.0; Win64; x64) AppleWebKit/537.36 (KHTML, like Gecko) Chrome/113.0.0.0 Safari/537.36" etag="NIWPt01U9Igtk5Yfbris" version="21.3.4" type="github">
  <diagram name="第 1 页" id="t7S67cMxcqPAhoXhFFUT">
    <mxGraphModel dx="1050" dy="485" grid="1" gridSize="10" guides="1" tooltips="1" connect="1" arrows="1" fold="1" page="1" pageScale="1" pageWidth="3300" pageHeight="4681" math="0" shadow="0">
      <root>
        <mxCell id="0" />
        <mxCell id="1" parent="0" />
        <mxCell id="XTMaqOvC3F75XKqA7CU3-1" value="章节" style="rounded=0;whiteSpace=wrap;html=1;" vertex="1" parent="1">
          <mxGeometry x="470" y="290" width="120" height="60" as="geometry" />
        </mxCell>
        <mxCell id="XTMaqOvC3F75XKqA7CU3-2" value="ID" style="ellipse;whiteSpace=wrap;html=1;align=center;" vertex="1" parent="1">
          <mxGeometry x="270" y="270" width="100" height="40" as="geometry" />
        </mxCell>
        <mxCell id="XTMaqOvC3F75XKqA7CU3-3" value="章节名称" style="ellipse;whiteSpace=wrap;html=1;align=center;" vertex="1" parent="1">
          <mxGeometry x="340" y="200" width="100" height="40" as="geometry" />
        </mxCell>
        <mxCell id="XTMaqOvC3F75XKqA7CU3-4" value="章节描述" style="ellipse;whiteSpace=wrap;html=1;align=center;" vertex="1" parent="1">
          <mxGeometry x="490" y="190" width="100" height="40" as="geometry" />
        </mxCell>
        <mxCell id="XTMaqOvC3F75XKqA7CU3-5" value="章节资源" style="ellipse;whiteSpace=wrap;html=1;align=center;" vertex="1" parent="1">
          <mxGeometry x="640" y="210" width="100" height="40" as="geometry" />
        </mxCell>
        <mxCell id="XTMaqOvC3F75XKqA7CU3-6" value="所属课程" style="ellipse;whiteSpace=wrap;html=1;align=center;" vertex="1" parent="1">
          <mxGeometry x="700" y="280" width="100" height="40" as="geometry" />
        </mxCell>
        <mxCell id="XTMaqOvC3F75XKqA7CU3-7" value="" style="endArrow=none;html=1;rounded=0;exitX=1;exitY=1;exitDx=0;exitDy=0;entryX=0;entryY=0.5;entryDx=0;entryDy=0;" edge="1" parent="1" source="XTMaqOvC3F75XKqA7CU3-2" target="XTMaqOvC3F75XKqA7CU3-1">
          <mxGeometry relative="1" as="geometry">
            <mxPoint x="460" y="250" as="sourcePoint" />
            <mxPoint x="620" y="250" as="targetPoint" />
          </mxGeometry>
        </mxCell>
        <mxCell id="XTMaqOvC3F75XKqA7CU3-8" value="" style="endArrow=none;html=1;rounded=0;exitX=1;exitY=1;exitDx=0;exitDy=0;" edge="1" parent="1" source="XTMaqOvC3F75XKqA7CU3-3" target="XTMaqOvC3F75XKqA7CU3-1">
          <mxGeometry relative="1" as="geometry">
            <mxPoint x="460" y="250" as="sourcePoint" />
            <mxPoint x="620" y="250" as="targetPoint" />
          </mxGeometry>
        </mxCell>
        <mxCell id="XTMaqOvC3F75XKqA7CU3-9" value="" style="endArrow=none;html=1;rounded=0;exitX=0.5;exitY=1;exitDx=0;exitDy=0;entryX=0.5;entryY=0;entryDx=0;entryDy=0;" edge="1" parent="1" source="XTMaqOvC3F75XKqA7CU3-4" target="XTMaqOvC3F75XKqA7CU3-1">
          <mxGeometry relative="1" as="geometry">
            <mxPoint x="460" y="250" as="sourcePoint" />
            <mxPoint x="620" y="250" as="targetPoint" />
          </mxGeometry>
        </mxCell>
        <mxCell id="XTMaqOvC3F75XKqA7CU3-10" value="" style="endArrow=none;html=1;rounded=0;exitX=0.75;exitY=0;exitDx=0;exitDy=0;entryX=0;entryY=1;entryDx=0;entryDy=0;" edge="1" parent="1" source="XTMaqOvC3F75XKqA7CU3-1" target="XTMaqOvC3F75XKqA7CU3-5">
          <mxGeometry relative="1" as="geometry">
            <mxPoint x="460" y="250" as="sourcePoint" />
            <mxPoint x="620" y="250" as="targetPoint" />
          </mxGeometry>
        </mxCell>
        <mxCell id="XTMaqOvC3F75XKqA7CU3-11" value="" style="endArrow=none;html=1;rounded=0;exitX=1;exitY=0.5;exitDx=0;exitDy=0;entryX=0;entryY=0.5;entryDx=0;entryDy=0;" edge="1" parent="1" source="XTMaqOvC3F75XKqA7CU3-1" target="XTMaqOvC3F75XKqA7CU3-6">
          <mxGeometry relative="1" as="geometry">
            <mxPoint x="460" y="250" as="sourcePoint" />
            <mxPoint x="620" y="250" as="targetPoint" />
          </mxGeometry>
        </mxCell>
      </root>
    </mxGraphModel>
  </diagram>
</mxfile>
